<mxfile host="Electron" modified="2023-07-02T09:40:26.864Z" agent="Mozilla/5.0 (X11; Linux x86_64) AppleWebKit/537.36 (KHTML, like Gecko) draw.io/21.5.1 Chrome/112.0.5615.204 Electron/24.6.0 Safari/537.36" etag="BNp-WUoISakwLaGAYILT" version="21.5.1" type="device">
  <diagram id="JwpyBmJK_JEvh0ScPfmV" name="Page-1">
    <mxGraphModel dx="2049" dy="1144" grid="1" gridSize="10" guides="1" tooltips="1" connect="1" arrows="1" fold="1" page="1" pageScale="1" pageWidth="827" pageHeight="1169" math="0" shadow="0">
      <root>
        <mxCell id="0" />
        <mxCell id="1" parent="0" />
        <mxCell id="FN8TU1mAKjDCOiVMt3JM-1" value="" style="rounded=0;whiteSpace=wrap;html=1;fillColor=none;" parent="1" vertex="1">
          <mxGeometry x="720" y="40" width="840" height="480" as="geometry" />
        </mxCell>
        <mxCell id="FN8TU1mAKjDCOiVMt3JM-2" value="Server" style="rounded=0;whiteSpace=wrap;html=1;fillColor=none;fontSize=25;" parent="1" vertex="1">
          <mxGeometry x="720" y="40" width="120" height="40" as="geometry" />
        </mxCell>
        <mxCell id="FN8TU1mAKjDCOiVMt3JM-53" style="edgeStyle=orthogonalEdgeStyle;rounded=0;orthogonalLoop=1;jettySize=auto;html=1;entryX=0;entryY=0.5;entryDx=0;entryDy=0;startArrow=none;startFill=0;endArrow=classic;endFill=1;fontSize=12;" parent="1" source="FN8TU1mAKjDCOiVMt3JM-5" target="FN8TU1mAKjDCOiVMt3JM-45" edge="1">
          <mxGeometry relative="1" as="geometry" />
        </mxCell>
        <mxCell id="FN8TU1mAKjDCOiVMt3JM-5" value="Kafka" style="shape=cylinder;whiteSpace=wrap;html=1;boundedLbl=1;backgroundOutline=1;fillColor=none;fontSize=25;" parent="1" vertex="1">
          <mxGeometry x="820" y="310" width="80" height="80" as="geometry" />
        </mxCell>
        <mxCell id="FN8TU1mAKjDCOiVMt3JM-6" value="" style="rounded=0;whiteSpace=wrap;html=1;fillColor=none;fontSize=25;" parent="1" vertex="1">
          <mxGeometry x="976" y="120" width="358" height="320" as="geometry" />
        </mxCell>
        <mxCell id="FN8TU1mAKjDCOiVMt3JM-7" value="WildFly" style="rounded=0;whiteSpace=wrap;html=1;fillColor=none;fontSize=25;" parent="1" vertex="1">
          <mxGeometry x="976" y="120" width="120" height="60" as="geometry" />
        </mxCell>
        <mxCell id="FN8TU1mAKjDCOiVMt3JM-13" style="edgeStyle=orthogonalEdgeStyle;rounded=0;orthogonalLoop=1;jettySize=auto;html=1;entryX=0;entryY=0.5;entryDx=0;entryDy=0;fontSize=15;" parent="1" source="FN8TU1mAKjDCOiVMt3JM-8" target="FN8TU1mAKjDCOiVMt3JM-9" edge="1">
          <mxGeometry relative="1" as="geometry" />
        </mxCell>
        <mxCell id="FN8TU1mAKjDCOiVMt3JM-14" style="edgeStyle=orthogonalEdgeStyle;rounded=0;orthogonalLoop=1;jettySize=auto;html=1;entryX=0;entryY=0.5;entryDx=0;entryDy=0;fontSize=15;" parent="1" source="FN8TU1mAKjDCOiVMt3JM-8" target="FN8TU1mAKjDCOiVMt3JM-10" edge="1">
          <mxGeometry relative="1" as="geometry" />
        </mxCell>
        <mxCell id="FN8TU1mAKjDCOiVMt3JM-8" value="Load Balancer" style="rounded=0;whiteSpace=wrap;html=1;fillColor=none;fontSize=15;" parent="1" vertex="1">
          <mxGeometry x="1014" y="250" width="120" height="60" as="geometry" />
        </mxCell>
        <mxCell id="FN8TU1mAKjDCOiVMt3JM-26" style="edgeStyle=orthogonalEdgeStyle;rounded=0;orthogonalLoop=1;jettySize=auto;html=1;entryX=1;entryY=0.25;entryDx=0;entryDy=0;dashed=1;fontSize=15;" parent="1" source="FN8TU1mAKjDCOiVMt3JM-9" target="FN8TU1mAKjDCOiVMt3JM-8" edge="1">
          <mxGeometry relative="1" as="geometry">
            <Array as="points">
              <mxPoint x="1144" y="180" />
              <mxPoint x="1144" y="265" />
            </Array>
          </mxGeometry>
        </mxCell>
        <mxCell id="FN8TU1mAKjDCOiVMt3JM-41" style="edgeStyle=orthogonalEdgeStyle;rounded=0;orthogonalLoop=1;jettySize=auto;html=1;entryX=0;entryY=0.5;entryDx=0;entryDy=0;startArrow=none;startFill=0;endArrow=classic;endFill=1;fontSize=12;" parent="1" source="FN8TU1mAKjDCOiVMt3JM-9" target="FN8TU1mAKjDCOiVMt3JM-40" edge="1">
          <mxGeometry relative="1" as="geometry" />
        </mxCell>
        <mxCell id="FN8TU1mAKjDCOiVMt3JM-9" value="Host 1" style="rounded=0;whiteSpace=wrap;html=1;fillColor=none;fontSize=15;" parent="1" vertex="1">
          <mxGeometry x="1174" y="160" width="120" height="60" as="geometry" />
        </mxCell>
        <mxCell id="FN8TU1mAKjDCOiVMt3JM-25" style="edgeStyle=orthogonalEdgeStyle;rounded=0;orthogonalLoop=1;jettySize=auto;html=1;entryX=1;entryY=0.75;entryDx=0;entryDy=0;fontSize=15;dashed=1;" parent="1" source="FN8TU1mAKjDCOiVMt3JM-10" target="FN8TU1mAKjDCOiVMt3JM-8" edge="1">
          <mxGeometry relative="1" as="geometry">
            <Array as="points">
              <mxPoint x="1144" y="380" />
              <mxPoint x="1144" y="295" />
            </Array>
          </mxGeometry>
        </mxCell>
        <mxCell id="FN8TU1mAKjDCOiVMt3JM-42" style="edgeStyle=orthogonalEdgeStyle;rounded=0;orthogonalLoop=1;jettySize=auto;html=1;entryX=0;entryY=0.5;entryDx=0;entryDy=0;startArrow=none;startFill=0;endArrow=classic;endFill=1;fontSize=12;" parent="1" source="FN8TU1mAKjDCOiVMt3JM-10" target="FN8TU1mAKjDCOiVMt3JM-39" edge="1">
          <mxGeometry relative="1" as="geometry" />
        </mxCell>
        <mxCell id="FN8TU1mAKjDCOiVMt3JM-10" value="Host 2" style="rounded=0;whiteSpace=wrap;html=1;fillColor=none;fontSize=15;" parent="1" vertex="1">
          <mxGeometry x="1174" y="340" width="120" height="60" as="geometry" />
        </mxCell>
        <mxCell id="FN8TU1mAKjDCOiVMt3JM-15" value="Postgres" style="shape=cylinder;whiteSpace=wrap;html=1;boundedLbl=1;backgroundOutline=1;fillColor=none;fontSize=25;" parent="1" vertex="1">
          <mxGeometry x="1386" y="225" width="110" height="110" as="geometry" />
        </mxCell>
        <mxCell id="FN8TU1mAKjDCOiVMt3JM-43" style="edgeStyle=orthogonalEdgeStyle;rounded=0;orthogonalLoop=1;jettySize=auto;html=1;entryX=0;entryY=0.5;entryDx=0;entryDy=0;startArrow=none;startFill=0;endArrow=classic;endFill=1;fontSize=12;" parent="1" source="FN8TU1mAKjDCOiVMt3JM-39" target="FN8TU1mAKjDCOiVMt3JM-15" edge="1">
          <mxGeometry relative="1" as="geometry" />
        </mxCell>
        <mxCell id="FN8TU1mAKjDCOiVMt3JM-39" value="" style="whiteSpace=wrap;html=1;aspect=fixed;fillColor=#ffffff;fontSize=12;" parent="1" vertex="1">
          <mxGeometry x="1324" y="360" width="20" height="20" as="geometry" />
        </mxCell>
        <mxCell id="FN8TU1mAKjDCOiVMt3JM-44" style="edgeStyle=orthogonalEdgeStyle;rounded=0;orthogonalLoop=1;jettySize=auto;html=1;entryX=0;entryY=0.5;entryDx=0;entryDy=0;startArrow=none;startFill=0;endArrow=classic;endFill=1;fontSize=12;" parent="1" source="FN8TU1mAKjDCOiVMt3JM-40" target="FN8TU1mAKjDCOiVMt3JM-15" edge="1">
          <mxGeometry relative="1" as="geometry" />
        </mxCell>
        <mxCell id="FN8TU1mAKjDCOiVMt3JM-40" value="" style="whiteSpace=wrap;html=1;aspect=fixed;fillColor=#ffffff;fontSize=12;" parent="1" vertex="1">
          <mxGeometry x="1324" y="180" width="20" height="20" as="geometry" />
        </mxCell>
        <mxCell id="FN8TU1mAKjDCOiVMt3JM-51" style="edgeStyle=orthogonalEdgeStyle;rounded=0;orthogonalLoop=1;jettySize=auto;html=1;entryX=0;entryY=0.75;entryDx=0;entryDy=0;startArrow=none;startFill=0;endArrow=classic;endFill=1;fontSize=12;" parent="1" source="FN8TU1mAKjDCOiVMt3JM-45" target="FN8TU1mAKjDCOiVMt3JM-8" edge="1">
          <mxGeometry relative="1" as="geometry">
            <Array as="points">
              <mxPoint x="996" y="300" />
              <mxPoint x="996" y="295" />
            </Array>
          </mxGeometry>
        </mxCell>
        <mxCell id="FN8TU1mAKjDCOiVMt3JM-45" value="" style="whiteSpace=wrap;html=1;aspect=fixed;fillColor=#ffffff;fontSize=12;" parent="1" vertex="1">
          <mxGeometry x="966" y="290" width="20" height="20" as="geometry" />
        </mxCell>
        <mxCell id="FN8TU1mAKjDCOiVMt3JM-50" style="edgeStyle=orthogonalEdgeStyle;rounded=0;orthogonalLoop=1;jettySize=auto;html=1;entryX=0;entryY=0.25;entryDx=0;entryDy=0;startArrow=classic;startFill=1;endArrow=none;endFill=0;fontSize=12;dashed=1;" parent="1" source="FN8TU1mAKjDCOiVMt3JM-48" target="FN8TU1mAKjDCOiVMt3JM-8" edge="1">
          <mxGeometry relative="1" as="geometry">
            <Array as="points">
              <mxPoint x="1006" y="260" />
              <mxPoint x="1006" y="265" />
            </Array>
          </mxGeometry>
        </mxCell>
        <mxCell id="FN8TU1mAKjDCOiVMt3JM-48" value="" style="whiteSpace=wrap;html=1;aspect=fixed;fillColor=#ffffff;fontSize=12;" parent="1" vertex="1">
          <mxGeometry x="966" y="250" width="20" height="20" as="geometry" />
        </mxCell>
        <mxCell id="FN8TU1mAKjDCOiVMt3JM-52" value="REST" style="ellipse;shape=cloud;whiteSpace=wrap;html=1;fillColor=#dae8fc;fontSize=12;strokeColor=#000000;" parent="1" vertex="1">
          <mxGeometry x="1206" y="250" width="76" height="40" as="geometry" />
        </mxCell>
        <mxCell id="FN8TU1mAKjDCOiVMt3JM-56" style="edgeStyle=orthogonalEdgeStyle;rounded=0;orthogonalLoop=1;jettySize=auto;html=1;entryX=0;entryY=0.5;entryDx=0;entryDy=0;startArrow=none;startFill=0;endArrow=classic;endFill=1;fontSize=25;" parent="1" source="FN8TU1mAKjDCOiVMt3JM-54" target="FN8TU1mAKjDCOiVMt3JM-48" edge="1">
          <mxGeometry relative="1" as="geometry" />
        </mxCell>
        <mxCell id="FN8TU1mAKjDCOiVMt3JM-62" style="edgeStyle=orthogonalEdgeStyle;rounded=0;orthogonalLoop=1;jettySize=auto;html=1;entryX=1;entryY=0.5;entryDx=0;entryDy=0;startArrow=none;startFill=0;endArrow=classic;endFill=1;fontSize=25;" parent="1" source="FN8TU1mAKjDCOiVMt3JM-54" target="FN8TU1mAKjDCOiVMt3JM-59" edge="1">
          <mxGeometry relative="1" as="geometry" />
        </mxCell>
        <mxCell id="FN8TU1mAKjDCOiVMt3JM-54" value="GUI" style="shape=process;whiteSpace=wrap;html=1;backgroundOutline=1;strokeColor=#000000;fillColor=#ffffff;fontSize=25;" parent="1" vertex="1">
          <mxGeometry x="800" y="190" width="120" height="60" as="geometry" />
        </mxCell>
        <mxCell id="FN8TU1mAKjDCOiVMt3JM-57" value="" style="rounded=0;whiteSpace=wrap;html=1;strokeColor=#000000;fillColor=none;fontSize=25;" parent="1" vertex="1">
          <mxGeometry x="350" y="190" width="280" height="200" as="geometry" />
        </mxCell>
        <mxCell id="FN8TU1mAKjDCOiVMt3JM-58" value="Raspberry Pi" style="rounded=0;whiteSpace=wrap;html=1;strokeColor=#000000;fillColor=none;fontSize=25;" parent="1" vertex="1">
          <mxGeometry x="350" y="190" width="160" height="40" as="geometry" />
        </mxCell>
        <mxCell id="FN8TU1mAKjDCOiVMt3JM-59" value="" style="whiteSpace=wrap;html=1;aspect=fixed;fillColor=#ffffff;fontSize=12;" parent="1" vertex="1">
          <mxGeometry x="710" y="210" width="20" height="20" as="geometry" />
        </mxCell>
        <mxCell id="FN8TU1mAKjDCOiVMt3JM-61" style="edgeStyle=orthogonalEdgeStyle;rounded=0;orthogonalLoop=1;jettySize=auto;html=1;entryX=0;entryY=0.5;entryDx=0;entryDy=0;startArrow=none;startFill=0;endArrow=classic;endFill=1;fontSize=25;" parent="1" source="FN8TU1mAKjDCOiVMt3JM-60" target="FN8TU1mAKjDCOiVMt3JM-5" edge="1">
          <mxGeometry relative="1" as="geometry" />
        </mxCell>
        <mxCell id="FN8TU1mAKjDCOiVMt3JM-60" value="" style="whiteSpace=wrap;html=1;aspect=fixed;fillColor=#ffffff;fontSize=12;" parent="1" vertex="1">
          <mxGeometry x="710" y="340" width="20" height="20" as="geometry" />
        </mxCell>
        <mxCell id="FN8TU1mAKjDCOiVMt3JM-67" style="edgeStyle=orthogonalEdgeStyle;rounded=0;orthogonalLoop=1;jettySize=auto;html=1;entryX=0;entryY=0.5;entryDx=0;entryDy=0;startArrow=none;startFill=0;endArrow=classic;endFill=1;fontSize=15;" parent="1" source="FN8TU1mAKjDCOiVMt3JM-63" target="FN8TU1mAKjDCOiVMt3JM-64" edge="1">
          <mxGeometry relative="1" as="geometry" />
        </mxCell>
        <mxCell id="FN8TU1mAKjDCOiVMt3JM-63" value="Kafka&lt;br&gt;Connector" style="shape=step;perimeter=stepPerimeter;whiteSpace=wrap;html=1;fixedSize=1;strokeColor=#000000;fillColor=none;fontSize=15;" parent="1" vertex="1">
          <mxGeometry x="470" y="330" width="120" height="40" as="geometry" />
        </mxCell>
        <mxCell id="FN8TU1mAKjDCOiVMt3JM-73" value="" style="edgeStyle=orthogonalEdgeStyle;rounded=0;orthogonalLoop=1;jettySize=auto;html=1;startArrow=none;startFill=0;endArrow=classic;endFill=1;fontSize=15;" parent="1" source="FN8TU1mAKjDCOiVMt3JM-64" target="FN8TU1mAKjDCOiVMt3JM-60" edge="1">
          <mxGeometry relative="1" as="geometry" />
        </mxCell>
        <mxCell id="FN8TU1mAKjDCOiVMt3JM-64" value="" style="whiteSpace=wrap;html=1;aspect=fixed;fillColor=#ffffff;fontSize=12;" parent="1" vertex="1">
          <mxGeometry x="620" y="340" width="20" height="20" as="geometry" />
        </mxCell>
        <mxCell id="FN8TU1mAKjDCOiVMt3JM-77" style="edgeStyle=orthogonalEdgeStyle;rounded=0;orthogonalLoop=1;jettySize=auto;html=1;startArrow=none;startFill=0;endArrow=classic;endFill=1;fontSize=15;fontColor=#000000;" parent="1" source="FN8TU1mAKjDCOiVMt3JM-70" target="FN8TU1mAKjDCOiVMt3JM-74" edge="1">
          <mxGeometry relative="1" as="geometry" />
        </mxCell>
        <mxCell id="FN8TU1mAKjDCOiVMt3JM-70" value="" style="whiteSpace=wrap;html=1;aspect=fixed;fillColor=#ffffff;fontSize=12;" parent="1" vertex="1">
          <mxGeometry x="340" y="260" width="20" height="20" as="geometry" />
        </mxCell>
        <mxCell id="FN8TU1mAKjDCOiVMt3JM-78" style="edgeStyle=orthogonalEdgeStyle;rounded=0;orthogonalLoop=1;jettySize=auto;html=1;entryX=0.5;entryY=0;entryDx=0;entryDy=0;startArrow=none;startFill=0;endArrow=classic;endFill=1;fontSize=15;fontColor=#000000;" parent="1" source="FN8TU1mAKjDCOiVMt3JM-74" target="FN8TU1mAKjDCOiVMt3JM-63" edge="1">
          <mxGeometry relative="1" as="geometry">
            <Array as="points">
              <mxPoint x="440" y="315" />
              <mxPoint x="530" y="315" />
            </Array>
          </mxGeometry>
        </mxCell>
        <mxCell id="FN8TU1mAKjDCOiVMt3JM-74" value="" style="shape=document;whiteSpace=wrap;html=1;boundedLbl=1;strokeColor=#000000;fillColor=none;fontSize=15;fontColor=#000000;labelBackgroundColor=none;rotation=-180;" parent="1" vertex="1">
          <mxGeometry x="390" y="245" width="100" height="50" as="geometry" />
        </mxCell>
        <mxCell id="FN8TU1mAKjDCOiVMt3JM-75" value="&lt;span style=&quot;color: rgb(0 , 0 , 0) ; font-family: &amp;#34;helvetica&amp;#34; ; font-size: 15px ; font-style: normal ; font-weight: 400 ; letter-spacing: normal ; text-align: center ; text-indent: 0px ; text-transform: none ; word-spacing: 0px ; display: inline ; float: none&quot;&gt;433 MHz&lt;/span&gt;&lt;br style=&quot;color: rgb(0 , 0 , 0) ; font-family: &amp;#34;helvetica&amp;#34; ; font-size: 15px ; font-style: normal ; font-weight: 400 ; letter-spacing: normal ; text-align: center ; text-indent: 0px ; text-transform: none ; word-spacing: 0px&quot;&gt;&lt;span style=&quot;color: rgb(0 , 0 , 0) ; font-family: &amp;#34;helvetica&amp;#34; ; font-size: 15px ; font-style: normal ; font-weight: 400 ; letter-spacing: normal ; text-align: center ; text-indent: 0px ; text-transform: none ; word-spacing: 0px ; display: inline ; float: none&quot;&gt;Receiver&lt;/span&gt;" style="text;html=1;strokeColor=none;fillColor=none;align=center;verticalAlign=middle;whiteSpace=wrap;rounded=0;labelBackgroundColor=none;fontSize=15;fontColor=#000000;" parent="1" vertex="1">
          <mxGeometry x="400" y="255" width="80" height="40" as="geometry" />
        </mxCell>
        <mxCell id="FN8TU1mAKjDCOiVMt3JM-79" value="433 MHz&lt;br&gt;Sender" style="shape=document;whiteSpace=wrap;html=1;boundedLbl=1;labelBackgroundColor=none;strokeColor=#000000;fillColor=none;fontSize=15;fontColor=#000000;" parent="1" vertex="1">
          <mxGeometry x="150" y="180" width="80" height="50" as="geometry" />
        </mxCell>
        <mxCell id="FN8TU1mAKjDCOiVMt3JM-80" value="433 MHz&lt;br&gt;Sender" style="shape=document;whiteSpace=wrap;html=1;boundedLbl=1;labelBackgroundColor=none;strokeColor=#000000;fillColor=none;fontSize=15;fontColor=#000000;" parent="1" vertex="1">
          <mxGeometry x="150" y="245" width="80" height="50" as="geometry" />
        </mxCell>
        <mxCell id="FN8TU1mAKjDCOiVMt3JM-81" value="..." style="shape=document;whiteSpace=wrap;html=1;boundedLbl=1;labelBackgroundColor=none;strokeColor=#000000;fillColor=none;fontSize=15;fontColor=#000000;" parent="1" vertex="1">
          <mxGeometry x="150" y="310" width="80" height="50" as="geometry" />
        </mxCell>
        <mxCell id="FN8TU1mAKjDCOiVMt3JM-82" value="" style="endArrow=none;dashed=1;html=1;fontSize=15;fontColor=#000000;entryX=0;entryY=0.5;entryDx=0;entryDy=0;exitX=1;exitY=0.5;exitDx=0;exitDy=0;" parent="1" source="FN8TU1mAKjDCOiVMt3JM-79" target="FN8TU1mAKjDCOiVMt3JM-70" edge="1">
          <mxGeometry width="50" height="50" relative="1" as="geometry">
            <mxPoint x="270" y="320" as="sourcePoint" />
            <mxPoint x="320" y="270" as="targetPoint" />
            <Array as="points">
              <mxPoint x="310" y="205" />
              <mxPoint x="310" y="270" />
            </Array>
          </mxGeometry>
        </mxCell>
        <mxCell id="FN8TU1mAKjDCOiVMt3JM-83" value="" style="endArrow=none;dashed=1;html=1;fontSize=15;fontColor=#000000;entryX=0;entryY=0.5;entryDx=0;entryDy=0;exitX=1;exitY=0.5;exitDx=0;exitDy=0;" parent="1" source="FN8TU1mAKjDCOiVMt3JM-80" target="FN8TU1mAKjDCOiVMt3JM-70" edge="1">
          <mxGeometry width="50" height="50" relative="1" as="geometry">
            <mxPoint x="270" y="320" as="sourcePoint" />
            <mxPoint x="320" y="270" as="targetPoint" />
            <Array as="points">
              <mxPoint x="250" y="270" />
              <mxPoint x="280" y="270" />
            </Array>
          </mxGeometry>
        </mxCell>
        <mxCell id="FN8TU1mAKjDCOiVMt3JM-84" value="" style="endArrow=none;dashed=1;html=1;fontSize=15;fontColor=#000000;entryX=0;entryY=0.5;entryDx=0;entryDy=0;exitX=1;exitY=0.5;exitDx=0;exitDy=0;" parent="1" source="FN8TU1mAKjDCOiVMt3JM-81" target="FN8TU1mAKjDCOiVMt3JM-70" edge="1">
          <mxGeometry width="50" height="50" relative="1" as="geometry">
            <mxPoint x="270" y="340" as="sourcePoint" />
            <mxPoint x="320" y="290" as="targetPoint" />
            <Array as="points">
              <mxPoint x="310" y="335" />
              <mxPoint x="310" y="270" />
            </Array>
          </mxGeometry>
        </mxCell>
        <mxCell id="QnDjo6JZb1rwNFytCDnl-1" value="CONSUL" style="shape=cylinder;whiteSpace=wrap;html=1;boundedLbl=1;backgroundOutline=1;fillColor=none;fontSize=13;" vertex="1" parent="1">
          <mxGeometry x="1401" y="400" width="80" height="40" as="geometry" />
        </mxCell>
        <mxCell id="QnDjo6JZb1rwNFytCDnl-5" value="" style="edgeStyle=orthogonalEdgeStyle;rounded=0;orthogonalLoop=1;jettySize=auto;html=1;" edge="1" parent="1" source="QnDjo6JZb1rwNFytCDnl-4" target="QnDjo6JZb1rwNFytCDnl-1">
          <mxGeometry relative="1" as="geometry" />
        </mxCell>
        <mxCell id="QnDjo6JZb1rwNFytCDnl-4" value="" style="whiteSpace=wrap;html=1;aspect=fixed;fillColor=#ffffff;fontSize=12;" vertex="1" parent="1">
          <mxGeometry x="1324" y="410" width="20" height="20" as="geometry" />
        </mxCell>
        <mxCell id="QnDjo6JZb1rwNFytCDnl-6" value="Properties" style="ellipse;whiteSpace=wrap;html=1;fontSize=10;fillColor=#dae8fc;strokeColor=default;" vertex="1" parent="1">
          <mxGeometry x="1344" y="450" width="56" height="30" as="geometry" />
        </mxCell>
        <mxCell id="QnDjo6JZb1rwNFytCDnl-8" value="" style="endArrow=classic;html=1;rounded=0;dashed=1;" edge="1" parent="1">
          <mxGeometry width="50" height="50" relative="1" as="geometry">
            <mxPoint x="1371.88" y="450" as="sourcePoint" />
            <mxPoint x="1371.88" y="420" as="targetPoint" />
          </mxGeometry>
        </mxCell>
        <mxCell id="QnDjo6JZb1rwNFytCDnl-9" value="" style="endArrow=none;html=1;rounded=0;" edge="1" parent="1">
          <mxGeometry width="50" height="50" relative="1" as="geometry">
            <mxPoint x="1304" y="420" as="sourcePoint" />
            <mxPoint x="1324" y="420" as="targetPoint" />
          </mxGeometry>
        </mxCell>
        <mxCell id="QnDjo6JZb1rwNFytCDnl-11" value="*" style="text;html=1;strokeColor=none;fillColor=none;align=center;verticalAlign=middle;whiteSpace=wrap;rounded=0;" vertex="1" parent="1">
          <mxGeometry x="1291" y="410" width="23" height="20" as="geometry" />
        </mxCell>
      </root>
    </mxGraphModel>
  </diagram>
</mxfile>
